# xmcd
#
# Track frame offsets:
#   150
#   17771
#   34678
#   57950
#   74626
#   89496
#   106774
#   124823
#   143229
#   153094
#   172024
#   187202
#   210288
#   230352
#   246242
#   267757
#   284177
#   304198
#
# Disc length: 4347 seconds
#
# Revision: 0
# Processed by: cddbd v1.5.2PL0 Copyright (c) Steve Scherf et al.
# Submitted via: GXTranscoder 2.0.1939
#
DISCID=0910f912
DTITLE=Farid Bang - Killa
DYEAR=2014
DGENRE=Hip Hop
TTITLE0=Farid Bumaye
TTITLE1=Lutsch
TTITLE2=King and Killa
TTITLE3=Killa
TTITLE4=Mütter in der Trennungsphase
TTITLE5=#Moroccogang
TTITLE6=Ohne Bang
TTITLE7=Dein Weg
TTITLE8=Comet Skit
TTITLE9=Banger Musiker
TTITLE10=Goodfellas
TTITLE11=Bitte Spitte Toi Lab
TTITLE12=Disco MMA
TTITLE13=Maskuliner
TTITLE14=Zeitmaschine
TTITLE15=Machogelaber
TTITLE16=Fack Ju
TTITLE17=Bitte Spitte Toi Lab RMX
EXTD=
EXTT0=
EXTT1=
EXTT2=
EXTT3=
EXTT4=
EXTT5=
EXTT6=
EXTT7=
EXTT8=
EXTT9=
EXTT10=
EXTT11=
EXTT12=
EXTT13=
EXTT14=
EXTT15=
EXTT16=
EXTT17=
PLAYORDER=
